<?xml version="1.0" encoding="utf-8"?>
<!-- Generator: Adobe Illustrator 23.0.3, SVG Export Plug-In . SVG Version: 6.00 Build 0)  -->
<svg version="1.1" id="Layer_1" xmlns="http://www.w3.org/2000/svg" xmlns:xlink="http://www.w3.org/1999/xlink" x="0px" y="0px"
	 viewBox="0 0 180.58 52.42" style="enable-background:new 0 0 180.58 52.42;" xml:space="preserve">
<style type="text/css">
	.st0{fill:#F50514;}
</style>
<path class="st0" d="M0,10.81h11.02v5.12c1.71-4.5,4.83-5.87,10.2-5.87v9.2h-3.2c-7.42,0-7.02,8.33-7.02,14.5l0.01,2.98v14.94H0
	V10.81z"/>
<path class="st0" d="M114.86,10.81h11.02v5.12c1.71-4.5,4.82-5.87,10.2-5.87v9.2h-3.2c-7.42,0-7.02,8.33-7.02,14.5l0.02,2.98v14.94
	h-11.02V10.81z"/>
<rect x="138.74" y="10.81" class="st0" width="11.1" height="40.88"/>
<polygon class="st0" points="150.04,31.26 158.33,10.81 168.66,10.81 161.95,27.26 175.96,27.26 175.96,35.3 161.95,35.3 
	168.69,51.69 158.3,51.69 "/>
<path class="st0" d="M55.58,10.8h5.47V4.45h10.98v6.35h6.46v7.56h-6.46v23.02c0.06,2.05,1.43,3.86,6.55,2.49
	c0.07,3.97,0,7.52,0,7.52c-12.25,1.71-17.3,0.82-17.53-9.95l0.07-0.02h-0.07V18.36h-5.47V10.8z"/>
<path class="st0" d="M37.84,10.49h-0.07C22.24,10.81,22.24,18.8,22.3,31.73c-0.07,11.73,0,20.62,15.41,20.69h0.19
	c15.41-0.07,15.48-8.96,15.41-20.69C53.38,18.8,53.38,10.81,37.84,10.49 M37.87,44.73L37.87,44.73L37.87,44.73l-0.02,0v0
	c-4.1-0.01-3.89-2.07-4.08-13.19c0.13-11.71-0.03-13.74,4.08-13.91c0,0,0.01,0,0.01,0h0.01v0c4.12,0.17,3.95,2.2,4.08,13.91
	C41.76,42.66,41.97,44.72,37.87,44.73"/>
<path class="st0" d="M96.07,10.49H96c-15.54,0.32-15.54,8.31-15.47,21.24c-0.07,11.73,0,20.62,15.41,20.69h0.2
	c15.41-0.07,15.47-8.96,15.41-20.69C111.61,18.8,111.61,10.81,96.07,10.49 M96.1,44.73L96.1,44.73L96.1,44.73l-0.02,0v0
	c-4.1-0.01-3.89-2.07-4.08-13.19c0.13-11.71-0.03-13.74,4.08-13.91c0,0,0.01,0,0.01,0h0.01v0c4.12,0.17,3.96,2.2,4.08,13.91
	C99.99,42.66,100.19,44.72,96.1,44.73"/>
<g>
	<path class="st0" d="M177.3,4.93c-0.09-0.21-0.18-0.37-0.28-0.5c-0.06-0.07-0.13-0.13-0.22-0.17c0.25-0.08,0.47-0.2,0.65-0.38
		c0.26-0.25,0.39-0.58,0.4-0.98c-0.01-0.56-0.17-0.97-0.5-1.22c-0.32-0.25-0.75-0.37-1.28-0.37c-0.01,0-0.01,0-0.02,0h-1.59v6h0.75
		V4.56h0.39c0.18,0,0.33,0.01,0.45,0.03c0.11,0.02,0.21,0.08,0.3,0.18c0.1,0.1,0.2,0.27,0.3,0.51l0.84,1.97l0.02,0.05h0.82
		L177.3,4.93z M177.1,2.9c0,0.25-0.07,0.44-0.2,0.58c-0.13,0.14-0.3,0.25-0.51,0.31c-0.21,0.06-0.42,0.09-0.63,0.09
		c-0.01,0-0.01,0-0.02,0h-0.52v-1.9h0.51c0.26,0,0.5,0.01,0.72,0.05c0.2,0.03,0.36,0.12,0.48,0.25C177.03,2.4,177.1,2.61,177.1,2.9z
		"/>
	<path class="st0" d="M176.16,8.82c-2.43,0-4.41-1.98-4.41-4.41c0-2.43,1.98-4.41,4.41-4.41c2.43,0,4.41,1.98,4.41,4.41
		C180.58,6.84,178.6,8.82,176.16,8.82z M176.16,0.7c-2.05,0-3.72,1.67-3.72,3.71c0,2.05,1.67,3.71,3.72,3.71
		c2.05,0,3.71-1.67,3.71-3.71C179.88,2.36,178.21,0.7,176.16,0.7z"/>
</g>
</svg>
